<?xml version="1.0" encoding="UTF-8" standalone="no"?>
<!DOCTYPE svg PUBLIC "-//W3C//DTD SVG 1.1//EN"
 "http://www.w3.org/Graphics/SVG/1.1/DTD/svg11.dtd">
<!-- Generated by graphviz version 2.36.0 (20140111.2315)
 -->
<!-- Title: G Pages: 1 -->
<svg width="782pt" height="632pt"
 viewBox="0.00 0.00 782.00 632.00" xmlns="http://www.w3.org/2000/svg" xmlns:xlink="http://www.w3.org/1999/xlink">
<g id="graph0" class="graph" transform="scale(1 1) rotate(0) translate(4 628)">
<title>G</title>
<polygon fill="white" stroke="none" points="-4,4 -4,-628 778,-628 778,4 -4,4"/>
<!-- modpc -->
<g id="node1" class="node"><title>modpc</title>
<path fill="none" stroke="black" d="M408,-529C408,-529 564,-529 564,-529 570,-529 576,-535 576,-541 576,-541 576,-611 576,-611 576,-617 570,-623 564,-623 564,-623 408,-623 408,-623 402,-623 396,-617 396,-611 396,-611 396,-541 396,-541 396,-535 402,-529 408,-529"/>
<text text-anchor="middle" x="486" y="-599.8" font-family="Times,serif" font-size="14.00">ModPC</text>
<polyline fill="none" stroke="black" points="396,-584 576,-584 "/>
<text text-anchor="start" x="404" y="-560.3" font-family="Times,serif" font-size="14.00">&#45; cop::PairCop</text>
<text text-anchor="start" x="404" y="-545.3" font-family="Times,serif" font-size="14.00">&#45; mod::PCModification</text>
</g>
<!-- pcmod -->
<g id="node2" class="node"><title>pcmod</title>
<path fill="none" stroke="black" d="M408,-397C408,-397 564,-397 564,-397 570,-397 576,-403 576,-409 576,-409 576,-479 576,-479 576,-485 570,-491 564,-491 564,-491 408,-491 408,-491 402,-491 396,-485 396,-479 396,-479 396,-409 396,-409 396,-403 402,-397 408,-397"/>
<text text-anchor="middle" x="486" y="-463.8" font-family="Times,serif" font-size="14.00">PCModification</text>
<polyline fill="none" stroke="black" points="396,-444 576,-444 "/>
<text text-anchor="middle" x="486" y="-416.8" font-family="Times,serif" font-size="14.00">abstract</text>
</g>
<!-- modpc&#45;&gt;pcmod -->
<!-- rot -->
<g id="node3" class="node"><title>rot</title>
<path fill="lightblue" stroke="black" d="M309,-265C309,-265 465,-265 465,-265 471,-265 477,-271 477,-277 477,-277 477,-347 477,-347 477,-353 471,-359 465,-359 465,-359 309,-359 309,-359 303,-359 297,-353 297,-347 297,-347 297,-277 297,-277 297,-271 303,-265 309,-265"/>
<text text-anchor="middle" x="387" y="-331.8" font-family="Times,serif" font-size="14.00">Rotation</text>
<polyline fill="none" stroke="black" points="297,-312 477,-312 "/>
<text text-anchor="middle" x="387" y="-284.8" font-family="Times,serif" font-size="14.00">abstract</text>
</g>
<!-- pcmod&#45;&gt;rot -->
<g id="edge2" class="edge"><title>pcmod&#45;&gt;rot</title>
<path fill="none" stroke="black" d="M450.818,-396.801C443.523,-387.222 435.775,-377.048 428.285,-367.212"/>
<polygon fill="black" stroke="black" points="430.912,-364.886 422.069,-359.05 425.343,-369.127 430.912,-364.886"/>
</g>
<!-- refl -->
<g id="node4" class="node"><title>refl</title>
<path fill="greenyellow" stroke="black" d="M507,-265C507,-265 663,-265 663,-265 669,-265 675,-271 675,-277 675,-277 675,-347 675,-347 675,-353 669,-359 663,-359 663,-359 507,-359 507,-359 501,-359 495,-353 495,-347 495,-347 495,-277 495,-277 495,-271 501,-265 507,-265"/>
<text text-anchor="middle" x="585" y="-331.8" font-family="Times,serif" font-size="14.00">Reflection</text>
<polyline fill="none" stroke="black" points="495,-312 675,-312 "/>
<text text-anchor="middle" x="585" y="-284.8" font-family="Times,serif" font-size="14.00">abstract</text>
</g>
<!-- pcmod&#45;&gt;refl -->
<g id="edge3" class="edge"><title>pcmod&#45;&gt;refl</title>
<path fill="none" stroke="black" d="M521.182,-396.801C528.477,-387.222 536.225,-377.048 543.715,-367.212"/>
<polygon fill="black" stroke="black" points="546.657,-369.127 549.931,-359.05 541.088,-364.886 546.657,-369.127"/>
</g>
<!-- cwrot -->
<g id="node5" class="node"><title>cwrot</title>
<path fill="lightblue" stroke="black" d="M210,-133C210,-133 366,-133 366,-133 372,-133 378,-139 378,-145 378,-145 378,-215 378,-215 378,-221 372,-227 366,-227 366,-227 210,-227 210,-227 204,-227 198,-221 198,-215 198,-215 198,-145 198,-145 198,-139 204,-133 210,-133"/>
<text text-anchor="middle" x="288" y="-199.8" font-family="Times,serif" font-size="14.00">CWRotation</text>
<polyline fill="none" stroke="black" points="198,-180 378,-180 "/>
<text text-anchor="middle" x="288" y="-152.8" font-family="Times,serif" font-size="14.00">abstract</text>
</g>
<!-- rot&#45;&gt;cwrot -->
<g id="edge4" class="edge"><title>rot&#45;&gt;cwrot</title>
<path fill="none" stroke="black" d="M351.818,-264.801C344.523,-255.222 336.775,-245.048 329.285,-235.212"/>
<polygon fill="black" stroke="black" points="331.912,-232.886 323.069,-227.05 326.343,-237.127 331.912,-232.886"/>
</g>
<!-- countrot -->
<g id="node6" class="node"><title>countrot</title>
<path fill="lightblue" stroke="black" d="M408,-133C408,-133 564,-133 564,-133 570,-133 576,-139 576,-145 576,-145 576,-215 576,-215 576,-221 570,-227 564,-227 564,-227 408,-227 408,-227 402,-227 396,-221 396,-215 396,-215 396,-145 396,-145 396,-139 402,-133 408,-133"/>
<text text-anchor="middle" x="486" y="-199.8" font-family="Times,serif" font-size="14.00">CounterCWRotation</text>
<polyline fill="none" stroke="black" points="396,-180 576,-180 "/>
<text text-anchor="middle" x="486" y="-152.8" font-family="Times,serif" font-size="14.00">abstract</text>
</g>
<!-- rot&#45;&gt;countrot -->
<g id="edge5" class="edge"><title>rot&#45;&gt;countrot</title>
<path fill="none" stroke="black" d="M422.182,-264.801C429.477,-255.222 437.225,-245.048 444.715,-235.212"/>
<polygon fill="black" stroke="black" points="447.657,-237.127 450.931,-227.05 442.088,-232.886 447.657,-237.127"/>
</g>
<!-- rot90 -->
<g id="node7" class="node"><title>rot90</title>
<path fill="lightblue" stroke="black" d="M12,-1C12,-1 168,-1 168,-1 174,-1 180,-7 180,-13 180,-13 180,-83 180,-83 180,-89 174,-95 168,-95 168,-95 12,-95 12,-95 6,-95 0,-89 0,-83 0,-83 0,-13 0,-13 0,-7 6,-1 12,-1"/>
<text text-anchor="middle" x="90" y="-71.8" font-family="Times,serif" font-size="14.00">Rot90</text>
<polyline fill="none" stroke="black" points="0,-56 180,-56 "/>
<text text-anchor="start" x="8" y="-32.3" font-family="Times,serif" font-size="14.00">&#45; description::String</text>
<text text-anchor="start" x="8" y="-17.3" font-family="Times,serif" font-size="14.00">&#45; degrees::Int</text>
</g>
<!-- cwrot&#45;&gt;rot90 -->
<g id="edge6" class="edge"><title>cwrot&#45;&gt;rot90</title>
<path fill="none" stroke="black" d="M217.914,-132.984C201.999,-122.534 184.991,-111.368 168.743,-100.7"/>
<polygon fill="black" stroke="black" points="170.606,-97.7361 160.326,-95.1734 166.764,-103.588 170.606,-97.7361"/>
</g>
<!-- rot180 -->
<g id="node8" class="node"><title>rot180</title>
<path fill="lightblue" stroke="black" d="M210,-1C210,-1 366,-1 366,-1 372,-1 378,-7 378,-13 378,-13 378,-83 378,-83 378,-89 372,-95 366,-95 366,-95 210,-95 210,-95 204,-95 198,-89 198,-83 198,-83 198,-13 198,-13 198,-7 204,-1 210,-1"/>
<text text-anchor="middle" x="288" y="-71.8" font-family="Times,serif" font-size="14.00">Rot180</text>
<polyline fill="none" stroke="black" points="198,-56 378,-56 "/>
<text text-anchor="start" x="206" y="-32.3" font-family="Times,serif" font-size="14.00">&#45; description::String</text>
<text text-anchor="start" x="206" y="-17.3" font-family="Times,serif" font-size="14.00">&#45; degrees::Int</text>
</g>
<!-- cwrot&#45;&gt;rot180 -->
<g id="edge7" class="edge"><title>cwrot&#45;&gt;rot180</title>
<path fill="none" stroke="black" d="M288,-132.801C288,-123.893 288,-114.469 288,-105.282"/>
<polygon fill="black" stroke="black" points="291.5,-105.05 288,-95.0504 284.5,-105.05 291.5,-105.05"/>
</g>
<!-- rot90ccw -->
<g id="node9" class="node"><title>rot90ccw</title>
<path fill="lightblue" stroke="black" d="M408,-1C408,-1 564,-1 564,-1 570,-1 576,-7 576,-13 576,-13 576,-83 576,-83 576,-89 570,-95 564,-95 564,-95 408,-95 408,-95 402,-95 396,-89 396,-83 396,-83 396,-13 396,-13 396,-7 402,-1 408,-1"/>
<text text-anchor="middle" x="486" y="-71.8" font-family="Times,serif" font-size="14.00">Rot90CCW</text>
<polyline fill="none" stroke="black" points="396,-56 576,-56 "/>
<text text-anchor="start" x="404" y="-32.3" font-family="Times,serif" font-size="14.00">&#45; description::String</text>
<text text-anchor="start" x="404" y="-17.3" font-family="Times,serif" font-size="14.00">&#45; degrees::Int</text>
</g>
<!-- countrot&#45;&gt;rot90ccw -->
<g id="edge8" class="edge"><title>countrot&#45;&gt;rot90ccw</title>
<path fill="none" stroke="black" d="M486,-132.801C486,-123.893 486,-114.469 486,-105.282"/>
<polygon fill="black" stroke="black" points="489.5,-105.05 486,-95.0504 482.5,-105.05 489.5,-105.05"/>
</g>
<!-- rot180ccw -->
<g id="node10" class="node"><title>rot180ccw</title>
<path fill="lightblue" stroke="black" d="M606,-1C606,-1 762,-1 762,-1 768,-1 774,-7 774,-13 774,-13 774,-83 774,-83 774,-89 768,-95 762,-95 762,-95 606,-95 606,-95 600,-95 594,-89 594,-83 594,-83 594,-13 594,-13 594,-7 600,-1 606,-1"/>
<text text-anchor="middle" x="684" y="-71.8" font-family="Times,serif" font-size="14.00">Rot180CCW</text>
<polyline fill="none" stroke="black" points="594,-56 774,-56 "/>
<text text-anchor="start" x="602" y="-32.3" font-family="Times,serif" font-size="14.00">&#45; description::String</text>
<text text-anchor="start" x="602" y="-17.3" font-family="Times,serif" font-size="14.00">&#45; degrees::Int</text>
</g>
<!-- countrot&#45;&gt;rot180ccw -->
<g id="edge9" class="edge"><title>countrot&#45;&gt;rot180ccw</title>
<path fill="none" stroke="black" d="M556.086,-132.984C572.001,-122.534 589.009,-111.368 605.257,-100.7"/>
<polygon fill="black" stroke="black" points="607.236,-103.588 613.674,-95.1734 603.394,-97.7361 607.236,-103.588"/>
</g>
</g>
</svg>
