<?xml version="1.0" encoding="UTF-8" standalone="no"?>
<!DOCTYPE svg PUBLIC "-//W3C//DTD SVG 1.1//EN"
 "http://www.w3.org/Graphics/SVG/1.1/DTD/svg11.dtd">
<!-- Generated by graphviz version 2.36.0 (20140111.2315)
 -->
<!-- Title: G Pages: 1 -->
<svg width="894pt" height="1028pt"
 viewBox="0.00 0.00 894.00 1028.00" xmlns="http://www.w3.org/2000/svg" xmlns:xlink="http://www.w3.org/1999/xlink">
<g id="graph0" class="graph" transform="scale(1 1) rotate(0) translate(4 1024)">
<title>G</title>
<polygon fill="white" stroke="none" points="-4,4 -4,-1024 890,-1024 890,4 -4,4"/>
<!-- cop -->
<g id="node1" class="node"><title>cop</title>
<path fill="none" stroke="black" d="M346,-925C346,-925 502,-925 502,-925 508,-925 514,-931 514,-937 514,-937 514,-1007 514,-1007 514,-1013 508,-1019 502,-1019 502,-1019 346,-1019 346,-1019 340,-1019 334,-1013 334,-1007 334,-1007 334,-937 334,-937 334,-931 340,-925 346,-925"/>
<text text-anchor="middle" x="424" y="-991.8" font-family="Times,serif" font-size="14.00">Copula</text>
<polyline fill="none" stroke="black" points="334,-972 514,-972 "/>
<text text-anchor="middle" x="424" y="-944.8" font-family="Times,serif" font-size="14.00">abstract</text>
</g>
<!-- paircop -->
<g id="node2" class="node"><title>paircop</title>
<path fill="lightblue" stroke="black" d="M247,-793C247,-793 403,-793 403,-793 409,-793 415,-799 415,-805 415,-805 415,-875 415,-875 415,-881 409,-887 403,-887 403,-887 247,-887 247,-887 241,-887 235,-881 235,-875 235,-875 235,-805 235,-805 235,-799 241,-793 247,-793"/>
<text text-anchor="middle" x="325" y="-859.8" font-family="Times,serif" font-size="14.00">PairCop</text>
<polyline fill="none" stroke="black" points="235,-840 415,-840 "/>
<text text-anchor="middle" x="325" y="-812.8" font-family="Times,serif" font-size="14.00">abstract</text>
</g>
<!-- cop&#45;&gt;paircop -->
<g id="edge2" class="edge"><title>cop&#45;&gt;paircop</title>
<path fill="none" stroke="black" d="M388.818,-924.801C381.523,-915.222 373.775,-905.048 366.285,-895.212"/>
<polygon fill="black" stroke="black" points="368.912,-892.886 360.069,-887.05 363.343,-897.127 368.912,-892.886"/>
</g>
<!-- pcc -->
<g id="node3" class="node"><title>pcc</title>
<path fill="none" stroke="black" d="M445,-793C445,-793 601,-793 601,-793 607,-793 613,-799 613,-805 613,-805 613,-875 613,-875 613,-881 607,-887 601,-887 601,-887 445,-887 445,-887 439,-887 433,-881 433,-875 433,-875 433,-805 433,-805 433,-799 439,-793 445,-793"/>
<text text-anchor="middle" x="523" y="-867.3" font-family="Times,serif" font-size="14.00">PCC</text>
<polyline fill="none" stroke="black" points="433,-855 613,-855 "/>
<text text-anchor="start" x="441" y="-835.3" font-family="Times,serif" font-size="14.00">&#45; pccCops::Array{PairCop,1}</text>
<text text-anchor="start" x="441" y="-820.3" font-family="Times,serif" font-size="14.00">&#45; vine::Vine</text>
<text text-anchor="start" x="441" y="-805.3" font-family="Times,serif" font-size="14.00">&#45; funcs::Array{Function,1}</text>
</g>
<!-- cop&#45;&gt;pcc -->
<g id="edge1" class="edge"><title>cop&#45;&gt;pcc</title>
<path fill="none" stroke="black" d="M459.182,-924.801C466.477,-915.222 474.225,-905.048 481.715,-895.212"/>
<polygon fill="black" stroke="black" points="484.657,-897.127 487.931,-887.05 479.088,-892.886 484.657,-897.127"/>
</g>
<!-- mixpc -->
<g id="node4" class="node"><title>mixpc</title>
<path fill="lightblue" stroke="black" d="M49,-661C49,-661 205,-661 205,-661 211,-661 217,-667 217,-673 217,-673 217,-743 217,-743 217,-749 211,-755 205,-755 205,-755 49,-755 49,-755 43,-755 37,-749 37,-743 37,-743 37,-673 37,-673 37,-667 43,-661 49,-661"/>
<text text-anchor="middle" x="127" y="-731.8" font-family="Times,serif" font-size="14.00">MixPC</text>
<polyline fill="none" stroke="black" points="37,-716 217,-716 "/>
<text text-anchor="start" x="45" y="-692.3" font-family="Times,serif" font-size="14.00">&#45; cops::Array{PairCop,1}</text>
<text text-anchor="start" x="45" y="-677.3" font-family="Times,serif" font-size="14.00">&#45; wgts::FloatVec</text>
</g>
<!-- paircop&#45;&gt;mixpc -->
<g id="edge3" class="edge"><title>paircop&#45;&gt;mixpc</title>
<path fill="none" stroke="black" d="M254.914,-792.984C238.999,-782.534 221.991,-771.368 205.743,-760.7"/>
<polygon fill="black" stroke="black" points="207.606,-757.736 197.326,-755.173 203.764,-763.588 207.606,-757.736"/>
</g>
<!-- modpc -->
<g id="node5" class="node"><title>modpc</title>
<path fill="lightblue" stroke="black" d="M247,-661C247,-661 403,-661 403,-661 409,-661 415,-667 415,-673 415,-673 415,-743 415,-743 415,-749 409,-755 403,-755 403,-755 247,-755 247,-755 241,-755 235,-749 235,-743 235,-743 235,-673 235,-673 235,-667 241,-661 247,-661"/>
<text text-anchor="middle" x="325" y="-731.8" font-family="Times,serif" font-size="14.00">ModPC</text>
<polyline fill="none" stroke="black" points="235,-716 415,-716 "/>
<text text-anchor="start" x="243" y="-692.3" font-family="Times,serif" font-size="14.00">&#45; cop::PairCop</text>
<text text-anchor="start" x="243" y="-677.3" font-family="Times,serif" font-size="14.00">&#45; mod::PCModification</text>
</g>
<!-- paircop&#45;&gt;modpc -->
<g id="edge4" class="edge"><title>paircop&#45;&gt;modpc</title>
<path fill="none" stroke="black" d="M325,-792.801C325,-783.893 325,-774.469 325,-765.282"/>
<polygon fill="black" stroke="black" points="328.5,-765.05 325,-755.05 321.5,-765.05 328.5,-765.05"/>
</g>
<!-- abstractparamcop -->
<g id="node8" class="node"><title>abstractparamcop</title>
<path fill="greenyellow" stroke="black" d="M365,-529C365,-529 521,-529 521,-529 527,-529 533,-535 533,-541 533,-541 533,-611 533,-611 533,-617 527,-623 521,-623 521,-623 365,-623 365,-623 359,-623 353,-617 353,-611 353,-611 353,-541 353,-541 353,-535 359,-529 365,-529"/>
<text text-anchor="middle" x="443" y="-595.8" font-family="Times,serif" font-size="14.00">AbstractParamPC</text>
<polyline fill="none" stroke="black" points="353,-576 533,-576 "/>
<text text-anchor="middle" x="443" y="-548.8" font-family="Times,serif" font-size="14.00">abstract</text>
</g>
<!-- paircop&#45;&gt;abstractparamcop -->
<g id="edge5" class="edge"><title>paircop&#45;&gt;abstractparamcop</title>
<path fill="none" stroke="black" d="M394.404,-792.936C406.026,-782.163 416.672,-769.758 424,-756 444.009,-718.434 448.106,-670.176 447.558,-633.234"/>
<polygon fill="black" stroke="black" points="451.054,-633.037 447.289,-623.133 444.056,-633.223 451.054,-633.037"/>
</g>
<!-- paramcop -->
<g id="node6" class="node"><title>paramcop</title>
<path fill="greenyellow" stroke="black" d="M208,-397C208,-397 364,-397 364,-397 370,-397 376,-403 376,-409 376,-409 376,-479 376,-479 376,-485 370,-491 364,-491 364,-491 208,-491 208,-491 202,-491 196,-485 196,-479 196,-479 196,-409 196,-409 196,-403 202,-397 208,-397"/>
<text text-anchor="middle" x="286" y="-463.8" font-family="Times,serif" font-size="14.00">ParamPC</text>
<polyline fill="none" stroke="black" points="196,-444 376,-444 "/>
<text text-anchor="middle" x="286" y="-416.8" font-family="Times,serif" font-size="14.00">abstract</text>
</g>
<!-- gauss_pc -->
<g id="node9" class="node"><title>gauss_pc</title>
<path fill="greenyellow" stroke="black" d="M12,-265C12,-265 168,-265 168,-265 174,-265 180,-271 180,-277 180,-277 180,-347 180,-347 180,-353 174,-359 168,-359 168,-359 12,-359 12,-359 6,-359 0,-353 0,-347 0,-347 0,-277 0,-277 0,-271 6,-265 12,-265"/>
<text text-anchor="middle" x="90" y="-331.8" font-family="Times,serif" font-size="14.00">GaussianPC</text>
<polyline fill="none" stroke="black" points="0,-312 180,-312 "/>
<text text-anchor="start" x="8" y="-284.8" font-family="Times,serif" font-size="14.00">&#45; rho::Float</text>
</g>
<!-- paramcop&#45;&gt;gauss_pc -->
<g id="edge8" class="edge"><title>paramcop&#45;&gt;gauss_pc</title>
<path fill="none" stroke="black" d="M216.622,-396.984C201.012,-386.63 184.34,-375.572 168.39,-364.994"/>
<polygon fill="black" stroke="black" points="169.883,-361.784 159.615,-359.173 166.014,-367.618 169.883,-361.784"/>
</g>
<!-- gumbel_pc -->
<g id="node10" class="node"><title>gumbel_pc</title>
<path fill="greenyellow" stroke="black" d="M90,-133C90,-133 246,-133 246,-133 252,-133 258,-139 258,-145 258,-145 258,-215 258,-215 258,-221 252,-227 246,-227 246,-227 90,-227 90,-227 84,-227 78,-221 78,-215 78,-215 78,-145 78,-145 78,-139 84,-133 90,-133"/>
<text text-anchor="middle" x="168" y="-199.8" font-family="Times,serif" font-size="14.00">GumbelPC</text>
<polyline fill="none" stroke="black" points="78,-180 258,-180 "/>
<text text-anchor="start" x="86" y="-152.8" font-family="Times,serif" font-size="14.00">&#45; theta::Float</text>
</g>
<!-- paramcop&#45;&gt;gumbel_pc -->
<g id="edge9" class="edge"><title>paramcop&#45;&gt;gumbel_pc</title>
<path fill="none" stroke="black" d="M265.176,-396.763C245.017,-352.003 214.437,-284.106 192.979,-236.461"/>
<polygon fill="black" stroke="black" points="196.112,-234.896 188.814,-227.215 189.73,-237.77 196.112,-234.896"/>
</g>
<!-- clayton_pc -->
<g id="node11" class="node"><title>clayton_pc</title>
<path fill="greenyellow" stroke="black" d="M208,-1C208,-1 364,-1 364,-1 370,-1 376,-7 376,-13 376,-13 376,-83 376,-83 376,-89 370,-95 364,-95 364,-95 208,-95 208,-95 202,-95 196,-89 196,-83 196,-83 196,-13 196,-13 196,-7 202,-1 208,-1"/>
<text text-anchor="middle" x="286" y="-67.8" font-family="Times,serif" font-size="14.00">ClaytonPC</text>
<polyline fill="none" stroke="black" points="196,-48 376,-48 "/>
<text text-anchor="start" x="204" y="-20.8" font-family="Times,serif" font-size="14.00">&#45; theta::Float</text>
</g>
<!-- paramcop&#45;&gt;clayton_pc -->
<g id="edge10" class="edge"><title>paramcop&#45;&gt;clayton_pc</title>
<path fill="none" stroke="black" d="M286,-396.645C286,-324.029 286,-183.679 286,-105.343"/>
<polygon fill="black" stroke="black" points="289.5,-105.179 286,-95.1789 282.5,-105.179 289.5,-105.179"/>
</g>
<!-- indep_pc -->
<g id="node12" class="node"><title>indep_pc</title>
<path fill="greenyellow" stroke="black" d="M326,-133C326,-133 482,-133 482,-133 488,-133 494,-139 494,-145 494,-145 494,-215 494,-215 494,-221 488,-227 482,-227 482,-227 326,-227 326,-227 320,-227 314,-221 314,-215 314,-215 314,-145 314,-145 314,-139 320,-133 326,-133"/>
<text text-anchor="middle" x="404" y="-199.8" font-family="Times,serif" font-size="14.00">Indep</text>
<polyline fill="none" stroke="black" points="314,-180 494,-180 "/>
<text text-anchor="middle" x="404" y="-152.8" font-family="Times,serif" font-size="14.00"> </text>
</g>
<!-- paramcop&#45;&gt;indep_pc -->
<g id="edge11" class="edge"><title>paramcop&#45;&gt;indep_pc</title>
<path fill="none" stroke="black" d="M306.824,-396.763C326.983,-352.003 357.563,-284.106 379.021,-236.461"/>
<polygon fill="black" stroke="black" points="382.27,-237.77 383.186,-227.215 375.888,-234.896 382.27,-237.77"/>
</g>
<!-- paramcop_cpp -->
<g id="node7" class="node"><title>paramcop_cpp</title>
<path fill="greenyellow" stroke="black" d="M522,-397C522,-397 678,-397 678,-397 684,-397 690,-403 690,-409 690,-409 690,-479 690,-479 690,-485 684,-491 678,-491 678,-491 522,-491 522,-491 516,-491 510,-485 510,-479 510,-479 510,-409 510,-409 510,-403 516,-397 522,-397"/>
<text text-anchor="middle" x="600" y="-463.8" font-family="Times,serif" font-size="14.00">ParamPC_Cpp</text>
<polyline fill="none" stroke="black" points="510,-444 690,-444 "/>
<text text-anchor="middle" x="600" y="-416.8" font-family="Times,serif" font-size="14.00">abstract</text>
</g>
<!-- gauss_pc_cpp -->
<g id="node13" class="node"><title>gauss_pc_cpp</title>
<path fill="greenyellow" stroke="black" d="M404,-265C404,-265 560,-265 560,-265 566,-265 572,-271 572,-277 572,-277 572,-347 572,-347 572,-353 566,-359 560,-359 560,-359 404,-359 404,-359 398,-359 392,-353 392,-347 392,-347 392,-277 392,-277 392,-271 398,-265 404,-265"/>
<text text-anchor="middle" x="482" y="-331.8" font-family="Times,serif" font-size="14.00">GaussianPC_Cpp</text>
<polyline fill="none" stroke="black" points="392,-312 572,-312 "/>
<text text-anchor="start" x="400" y="-284.8" font-family="Times,serif" font-size="14.00">&#45; params::Array{Float,1}</text>
</g>
<!-- paramcop_cpp&#45;&gt;gauss_pc_cpp -->
<g id="edge12" class="edge"><title>paramcop_cpp&#45;&gt;gauss_pc_cpp</title>
<path fill="none" stroke="black" d="M558.065,-396.801C549.197,-387.031 539.766,-376.64 530.673,-366.622"/>
<polygon fill="black" stroke="black" points="533.112,-364.103 523.8,-359.05 527.929,-368.807 533.112,-364.103"/>
</g>
<!-- gumbel_pc_cpp -->
<g id="node14" class="node"><title>gumbel_pc_cpp</title>
<path fill="greenyellow" stroke="black" d="M522,-1C522,-1 678,-1 678,-1 684,-1 690,-7 690,-13 690,-13 690,-83 690,-83 690,-89 684,-95 678,-95 678,-95 522,-95 522,-95 516,-95 510,-89 510,-83 510,-83 510,-13 510,-13 510,-7 516,-1 522,-1"/>
<text text-anchor="middle" x="600" y="-67.8" font-family="Times,serif" font-size="14.00">GumbelPC_Cpp</text>
<polyline fill="none" stroke="black" points="510,-48 690,-48 "/>
<text text-anchor="start" x="518" y="-20.8" font-family="Times,serif" font-size="14.00">&#45; params::Array{Float,1}</text>
</g>
<!-- paramcop_cpp&#45;&gt;gumbel_pc_cpp -->
<g id="edge13" class="edge"><title>paramcop_cpp&#45;&gt;gumbel_pc_cpp</title>
<path fill="none" stroke="black" d="M600,-396.645C600,-324.029 600,-183.679 600,-105.343"/>
<polygon fill="black" stroke="black" points="603.5,-105.179 600,-95.1789 596.5,-105.179 603.5,-105.179"/>
</g>
<!-- clayton_pc_cpp -->
<g id="node15" class="node"><title>clayton_pc_cpp</title>
<path fill="greenyellow" stroke="black" d="M640,-133C640,-133 796,-133 796,-133 802,-133 808,-139 808,-145 808,-145 808,-215 808,-215 808,-221 802,-227 796,-227 796,-227 640,-227 640,-227 634,-227 628,-221 628,-215 628,-215 628,-145 628,-145 628,-139 634,-133 640,-133"/>
<text text-anchor="middle" x="718" y="-199.8" font-family="Times,serif" font-size="14.00">ClaytonPC_Cpp</text>
<polyline fill="none" stroke="black" points="628,-180 808,-180 "/>
<text text-anchor="start" x="636" y="-152.8" font-family="Times,serif" font-size="14.00">&#45; params::Array{Float,1}</text>
</g>
<!-- paramcop_cpp&#45;&gt;clayton_pc_cpp -->
<g id="edge14" class="edge"><title>paramcop_cpp&#45;&gt;clayton_pc_cpp</title>
<path fill="none" stroke="black" d="M620.824,-396.763C640.983,-352.003 671.563,-284.106 693.021,-236.461"/>
<polygon fill="black" stroke="black" points="696.27,-237.77 697.186,-227.215 689.888,-234.896 696.27,-237.77"/>
</g>
<!-- indep_pc_cpp -->
<g id="node16" class="node"><title>indep_pc_cpp</title>
<path fill="greenyellow" stroke="black" d="M718,-265C718,-265 874,-265 874,-265 880,-265 886,-271 886,-277 886,-277 886,-347 886,-347 886,-353 880,-359 874,-359 874,-359 718,-359 718,-359 712,-359 706,-353 706,-347 706,-347 706,-277 706,-277 706,-271 712,-265 718,-265"/>
<text text-anchor="middle" x="796" y="-331.8" font-family="Times,serif" font-size="14.00">Indep_Cpp</text>
<polyline fill="none" stroke="black" points="706,-312 886,-312 "/>
<text text-anchor="start" x="714" y="-284.8" font-family="Times,serif" font-size="14.00">&#45; params::Array{Float,1}</text>
</g>
<!-- paramcop_cpp&#45;&gt;indep_pc_cpp -->
<g id="edge15" class="edge"><title>paramcop_cpp&#45;&gt;indep_pc_cpp</title>
<path fill="none" stroke="black" d="M669.378,-396.984C684.988,-386.63 701.66,-375.572 717.61,-364.994"/>
<polygon fill="black" stroke="black" points="719.986,-367.618 726.385,-359.173 716.117,-361.784 719.986,-367.618"/>
</g>
<!-- abstractparamcop&#45;&gt;paramcop -->
<g id="edge6" class="edge"><title>abstractparamcop&#45;&gt;paramcop</title>
<path fill="none" stroke="black" d="M387.206,-528.801C374.944,-518.647 361.873,-507.825 349.338,-497.445"/>
<polygon fill="black" stroke="black" points="351.549,-494.732 341.615,-491.05 347.085,-500.124 351.549,-494.732"/>
</g>
<!-- abstractparamcop&#45;&gt;paramcop_cpp -->
<g id="edge7" class="edge"><title>abstractparamcop&#45;&gt;paramcop_cpp</title>
<path fill="none" stroke="black" d="M498.794,-528.801C511.056,-518.647 524.127,-507.825 536.662,-497.445"/>
<polygon fill="black" stroke="black" points="538.915,-500.124 544.385,-491.05 534.451,-494.732 538.915,-500.124"/>
</g>
</g>
</svg>
