<?xml version="1.0" encoding="UTF-8" standalone="no"?>
<!DOCTYPE svg PUBLIC "-//W3C//DTD SVG 1.1//EN"
 "http://www.w3.org/Graphics/SVG/1.1/DTD/svg11.dtd">
<!-- Generated by graphviz version 2.36.0 (20140111.2315)
 -->
<!-- Title: G Pages: 1 -->
<svg width="584pt" height="500pt"
 viewBox="0.00 0.00 584.00 500.00" xmlns="http://www.w3.org/2000/svg" xmlns:xlink="http://www.w3.org/1999/xlink">
<g id="graph0" class="graph" transform="scale(1 1) rotate(0) translate(4 496)">
<title>G</title>
<polygon fill="white" stroke="none" points="-4,4 -4,-496 580,-496 580,4 -4,4"/>
<!-- pcc -->
<g id="node1" class="node"><title>pcc</title>
<path fill="none" stroke="black" d="M210,-397C210,-397 366,-397 366,-397 372,-397 378,-403 378,-409 378,-409 378,-479 378,-479 378,-485 372,-491 366,-491 366,-491 210,-491 210,-491 204,-491 198,-485 198,-479 198,-479 198,-409 198,-409 198,-403 204,-397 210,-397"/>
<text text-anchor="middle" x="288" y="-471.3" font-family="Times,serif" font-size="14.00">PCC</text>
<polyline fill="none" stroke="black" points="198,-459 378,-459 "/>
<text text-anchor="start" x="206" y="-439.3" font-family="Times,serif" font-size="14.00">&#45; pccCops::Array{PairCop,1}</text>
<text text-anchor="start" x="206" y="-424.3" font-family="Times,serif" font-size="14.00">&#45; vine::Vine</text>
<text text-anchor="start" x="206" y="-409.3" font-family="Times,serif" font-size="14.00">&#45; funcs::Array{Function,1}</text>
</g>
<!-- vine -->
<g id="node2" class="node"><title>vine</title>
<path fill="lightblue" stroke="black" d="M111,-265C111,-265 267,-265 267,-265 273,-265 279,-271 279,-277 279,-277 279,-347 279,-347 279,-353 273,-359 267,-359 267,-359 111,-359 111,-359 105,-359 99,-353 99,-347 99,-347 99,-277 99,-277 99,-271 105,-265 111,-265"/>
<text text-anchor="middle" x="189" y="-331.8" font-family="Times,serif" font-size="14.00">Vine</text>
<polyline fill="none" stroke="black" points="99,-312 279,-312 "/>
<text text-anchor="middle" x="189" y="-284.8" font-family="Times,serif" font-size="14.00">&#45; trees::Array{Int,2}</text>
</g>
<!-- pcc&#45;&gt;vine -->
<g id="edge1" class="edge"><title>pcc&#45;&gt;vine</title>
<path fill="none" stroke="black" stroke-dasharray="1,5" d="M252.818,-396.801C245.523,-387.222 237.775,-377.048 230.285,-367.212"/>
<polygon fill="black" stroke="black" points="232.912,-364.886 224.069,-359.05 227.343,-369.127 232.912,-364.886"/>
</g>
<!-- rvmatr -->
<g id="node4" class="node"><title>rvmatr</title>
<path fill="none" stroke="black" d="M309,-265C309,-265 465,-265 465,-265 471,-265 477,-271 477,-277 477,-277 477,-347 477,-347 477,-353 471,-359 465,-359 465,-359 309,-359 309,-359 303,-359 297,-353 297,-347 297,-347 297,-277 297,-277 297,-271 303,-265 309,-265"/>
<text text-anchor="middle" x="387" y="-331.8" font-family="Times,serif" font-size="14.00">RVMatrix</text>
<polyline fill="none" stroke="black" points="297,-312 477,-312 "/>
<text text-anchor="start" x="305" y="-284.8" font-family="Times,serif" font-size="14.00">&#45; matrix::Array{Int, 2}</text>
</g>
<!-- pcc&#45;&gt;rvmatr -->
<g id="edge2" class="edge"><title>pcc&#45;&gt;rvmatr</title>
<path fill="none" stroke="black" stroke-dasharray="1,5" d="M323.182,-396.801C330.477,-387.222 338.225,-377.048 345.715,-367.212"/>
<polygon fill="black" stroke="black" points="348.657,-369.127 351.931,-359.05 343.088,-364.886 348.657,-369.127"/>
</g>
<!-- abstractctree -->
<g id="node5" class="node"><title>abstractctree</title>
<path fill="lightblue" stroke="black" d="M111,-133C111,-133 267,-133 267,-133 273,-133 279,-139 279,-145 279,-145 279,-215 279,-215 279,-221 273,-227 267,-227 267,-227 111,-227 111,-227 105,-227 99,-221 99,-215 99,-215 99,-145 99,-145 99,-139 105,-133 111,-133"/>
<text text-anchor="middle" x="189" y="-199.8" font-family="Times,serif" font-size="14.00">AbstractCTree</text>
<polyline fill="none" stroke="black" points="99,-180 279,-180 "/>
<text text-anchor="middle" x="189" y="-152.8" font-family="Times,serif" font-size="14.00">abstract</text>
</g>
<!-- vine&#45;&gt;abstractctree -->
<g id="edge3" class="edge"><title>vine&#45;&gt;abstractctree</title>
<path fill="none" stroke="black" stroke-dasharray="1,5" d="M189,-264.801C189,-255.893 189,-246.469 189,-237.282"/>
<polygon fill="black" stroke="black" points="192.5,-237.05 189,-227.05 185.5,-237.05 192.5,-237.05"/>
</g>
<!-- pitmatr -->
<g id="node3" class="node"><title>pitmatr</title>
<path fill="none" stroke="black" d="M408,-397C408,-397 564,-397 564,-397 570,-397 576,-403 576,-409 576,-409 576,-479 576,-479 576,-485 570,-491 564,-491 564,-491 408,-491 408,-491 402,-491 396,-485 396,-479 396,-479 396,-409 396,-409 396,-403 402,-397 408,-397"/>
<text text-anchor="middle" x="486" y="-463.8" font-family="Times,serif" font-size="14.00">PITMatrix</text>
<polyline fill="none" stroke="black" points="396,-444 576,-444 "/>
<text text-anchor="start" x="404" y="-416.8" font-family="Times,serif" font-size="14.00">&#45; data::Array{Float, 3}</text>
</g>
<!-- ctreepaths -->
<g id="node6" class="node"><title>ctreepaths</title>
<path fill="lightblue" stroke="black" d="M12,-1C12,-1 168,-1 168,-1 174,-1 180,-7 180,-13 180,-13 180,-83 180,-83 180,-89 174,-95 168,-95 168,-95 12,-95 12,-95 6,-95 0,-89 0,-83 0,-83 0,-13 0,-13 0,-7 6,-1 12,-1"/>
<text text-anchor="middle" x="90" y="-71.8" font-family="Times,serif" font-size="14.00">CTreePaths</text>
<polyline fill="none" stroke="black" points="0,-56 180,-56 "/>
<text text-anchor="start" x="8" y="-32.3" font-family="Times,serif" font-size="14.00">&#45; root::Int</text>
<text text-anchor="start" x="8" y="-17.3" font-family="Times,serif" font-size="14.00">&#45; paths::IntArrays</text>
</g>
<!-- abstractctree&#45;&gt;ctreepaths -->
<g id="edge4" class="edge"><title>abstractctree&#45;&gt;ctreepaths</title>
<path fill="none" stroke="black" d="M153.818,-132.801C146.523,-123.222 138.775,-113.048 131.285,-103.212"/>
<polygon fill="black" stroke="black" points="133.912,-100.886 125.069,-95.0504 128.343,-105.127 133.912,-100.886"/>
</g>
<!-- ctreeparref -->
<g id="node7" class="node"><title>ctreeparref</title>
<path fill="lightblue" stroke="black" d="M210,-1C210,-1 366,-1 366,-1 372,-1 378,-7 378,-13 378,-13 378,-83 378,-83 378,-89 372,-95 366,-95 366,-95 210,-95 210,-95 204,-95 198,-89 198,-83 198,-83 198,-13 198,-13 198,-7 204,-1 210,-1"/>
<text text-anchor="middle" x="288" y="-67.8" font-family="Times,serif" font-size="14.00">CTreeParRef</text>
<polyline fill="none" stroke="black" points="198,-48 378,-48 "/>
<text text-anchor="start" x="206" y="-20.8" font-family="Times,serif" font-size="14.00">&#45; tree::Array{Int,1}</text>
</g>
<!-- abstractctree&#45;&gt;ctreeparref -->
<g id="edge5" class="edge"><title>abstractctree&#45;&gt;ctreeparref</title>
<path fill="none" stroke="black" d="M224.182,-132.801C231.477,-123.222 239.225,-113.048 246.715,-103.212"/>
<polygon fill="black" stroke="black" points="249.657,-105.127 252.931,-95.0504 244.088,-100.886 249.657,-105.127"/>
</g>
</g>
</svg>
